<?xml version="1.0"?><svg version="1.2" baseProfile="tiny-ps" viewBox="0 0 300 300" xmlns="http://www.w3.org/2000/svg" xmlns:xlink="http://www.w3.org/1999/xlink"><title>Ayush Kumar</title><g><g fill="#fff" transform="matrix(.1 0 0 -.1 0 300)"><path d="M0 1500V0h3000v3000H0V1500z"/></g><g fill="#e0e0e0" transform="matrix(.1 0 0 -.1 0 300)"><path d="M0 1500V0h3000v3000H0V1500zm1238 359 118-31v-107l-1-106 18-46 18-47-21-61-20-61-1-48c-2-60 9-112 27-133l14-16-63-11c-35-7-90-21-122-31l-59-20-66 14c-36 8-95 23-131 35l-67 20 10 42 9 42-10 82c-6 45-16 98-24 116l-14 34 20 40 21 39 1 85v85l-17 31-17 32 57 6c31 4 80 15 107 26 68 25 78 24 213-11zm-497-1c-5-13-14-63-20-113-7-49-14-91-16-93-6-6-42 54-49 83-4 16-12 36-18 42l-10 13H472l-7-17c-4-10-10-127-13-260l-5-242 27-11 27-10h124l18 43c9 23 32 61 51 84l33 42 6-87c3-48 8-94 12-103l6-17-34-6-34-6-38-29-38-28-31 8c-17 4-50 12-72 18-23 6-82 14-131 17l-90 7 18 48 19 49v171l-14 33-14 34 13 19c18 26 35 115 35 186v62l-35 28c-19 15-35 32-35 37v8l113-5 112-4 90 9c50 5 107 10 127 11l38 1-9-22zm1958-25-21-48 5-86 4-86-43-24c-24-13-44-27-44-31 0-5 23-24 50-44l50-36v-91l1-92 14-39 14-40-35-38c-18-21-34-42-34-48 0-5-21 12-48 39l-47 47 5 109 5 108-35 34c-19 18-38 33-41 33s-34-18-67-40l-62-40 1-37c0-21 6-75 12-120l13-82-21 5c-32 8-55 8-124-1l-65-7 27 31 26 32 11 42c6 23 13 47 15 54 6 18-16 134-30 163l-13 26 19 54 18 55 1 66v65l-29 22-29 21-10 30-11 31 27-7c15-5 64-8 110-8 45 0 82-1 82-1 0-1-6-20-14-42l-14-40-7-125-8-124 10-6 10-7 59 42c33 22 74 55 92 74l32 33v140l-9 24-10 25 37-5 37-5 45 20c25 12 48 21 52 21 4 1-2-20-13-46zm-857 22 38-7 27 10 28 9-3-75-4-75 17-61c10-34 24-74 33-91 8-16 21-61 29-99 19-89 58-174 116-253l46-62-27 10c-15 5-50 21-79 36l-52 26-27-22c-15-11-31-21-35-21h-9l-1 48v47l-18 54c-10 30-22 56-27 58l-9 3-44-70c-24-38-47-70-50-70-3 1-24 28-46 62s-45 63-51 65l-11 4-13-45-12-44 4-49c3-26 8-57 13-67l9-20-33 25c-18 13-38 28-45 33l-12 8-46-31c-25-17-53-31-62-31h-17l24 33c14 17 32 46 40 63 17 33 77 210 77 227 0 13-63 67-104 89l-31 17 38 1h38l39-20 38-20 27 87c15 48 30 104 33 125l5 38-13 15-12 15h-41c-51 0-45 5 24 24l54 15 50-4c28-2 67-7 87-10zm-792-75-45-18-3-240-2-239 24-17c14-9 45-21 70-28l45-12 23 11c13 6 35 15 51 22l27 11v481l-52 24c-61 29-77 29-138 5zm702-183c-18-63-32-120-32-128 1-8 17-32 36-54l36-40 39 45c21 25 39 52 38 60 0 8-14 62-32 119l-32 104-11 4-10 3-32-113z"/></g><g fill="#b7b7b7" transform="matrix(.1 0 0 -.1 0 300)"><path d="M0 1500V0h3000v3000H0V1500zm1247 359 123-32-8-26c-4-14-7-62-6-106l1-80 21-47 21-48-22-47-22-48v-170l18-27 18-26-58-12c-32-6-88-21-125-32l-67-21-48 12c-26 6-84 21-128 33l-80 21v121l-1 121-16 37-17 37 21 53 21 53 1 70 1 70-22 38-22 37h27c29 0 150 31 192 48 14 6 32 9 40 7s70-18 137-36zm-502 3c-3-8-12-57-20-109-7-53-16-97-18-100-9-8-47 50-57 87l-10 38-23 6c-12 3-50 6-84 6h-61l-9-67c-9-74-11-448-3-457 3-2 40-8 81-12l76-7 26 54c14 30 41 72 61 94l35 40 1-90c0-49 3-100 6-112l6-21-30-7c-17-3-50-19-74-35l-44-29-54 14c-29 8-95 19-147 25l-93 11-20-6-19-6 21 47 20 47 5 81 5 81-15 44-16 44 14 27c16 31 35 136 35 195v41l-40 39c-22 21-40 42-40 45s110 5 245 6h246l-6-14zm1961-24-21-43v-65c0-36 3-77 7-91l8-26-40-18c-22-10-45-24-51-31l-10-13 54-36 55-36-6-65-5-64 17-70 18-71-25-19c-13-11-31-33-39-51l-16-32-12 24c-13 23-38 49-72 73l-18 13 10 34c6 19 10 68 10 111v77l-36 29-36 30-64-40-64-41 4-31c3-17 8-64 11-105 4-40 8-78 11-85l4-11h-82c-46-1-96-4-113-9l-30-8 21 24c12 13 30 39 40 58l19 35v161l-19 42-19 43 17 37 18 37 6 82 5 81-31 16-30 15-11 32c-6 18-10 33-9 33 2 1 53 0 115-2l111-4-16-36-16-37-4-132-4-133h8c14 0 87 51 134 94l42 38 5 62 5 61-10 39-11 38 33-6 33-6 44 19c24 11 51 20 60 20l16 1-21-42zm-851 20c17-2 42 1 56 4l26 8-5-68-4-67 16-65c9-36 28-87 41-113l25-49v-27c0-70 67-214 137-291l48-54-15 6c-74 29-109 44-134 59l-29 18-36-25c-20-13-39-24-42-24h-7l5 38 5 37-22 73c-12 39-24 72-26 72-3 0-27-34-53-76l-49-76-47 71-48 71-8-5c-4-3-13-30-20-60l-12-55 11-48c5-26 9-49 7-51-3-2-21 10-42 26l-37 31-36-24c-20-14-51-29-69-34l-33-9 27 35c36 47 74 134 101 226l21 77-31 30c-17 17-49 39-70 49l-38 19 32 6 32 7 46-20c25-11 47-18 50-16 2 3 17 51 33 108l29 103-5 23-5 22h-114l10 9c5 5 32 16 59 25l50 15 70-4c39-3 84-6 100-7zm-793-76c-24-10-48-25-53-33l-9-14v-444l28-19c15-11 44-25 64-31l37-12 50 17 49 18 6 29c3 16 6 125 6 242v213l-42 21c-24 11-54 22-68 25l-25 5-43-17zm724-83c-3-8-19-62-37-121l-32-107 38-47 39-47 24 29c13 16 30 38 38 50l14 21-34 113c-37 119-43 131-50 109z"/></g><g fill="#858585" transform="matrix(.1 0 0 -.1 0 300)"><path d="M0 1500V0h3000v3000H0V1500zm1233 366c70-18 130-36 132-38 3-3 0-31-6-62l-10-58 6-42c4-22 16-67 26-99l20-59-10-11c-5-7-17-39-26-71l-17-60 5-54 6-54 16-25c9-13 14-27 12-30-3-2-41-13-84-22-43-10-99-24-125-32l-48-13-47 12c-27 7-82 22-123 33l-75 20v224l-18 47-19 48 21 55 21 56v135l-18 35-18 36 85 17c48 10 100 24 116 31 41 18 35 19 178-19zm-487-10c-3-12-11-59-17-106-7-47-16-89-21-95l-9-10-20 25c-10 14-24 42-31 63l-12 39-25 9-25 10-55-3-56-3-7-40c-4-22-7-138-7-257l-1-217 8-4c4-3 40-8 79-12l73-7 10 28c18 50 34 76 72 118l37 41 1-75c0-41 3-91 6-111l6-37-35-11c-20-7-53-24-73-37l-37-26-66 17-66 18-102 5c-57 2-103 6-103 7s7 17 16 35l17 33 10 72 11 72-17 67-17 68 17 31 17 32 4 97 4 97-36 34c-20 19-36 38-36 43v9l246 1 246 1-6-21zm1084 1 16-10 53 16 52 15-6-16c-4-10-10-38-12-64l-5-47 17-73c10-40 27-91 39-113l20-40 12-65 11-66 37-76 37-75 51-57 50-56-29 10c-15 6-58 25-96 42l-67 31-18-15c-9-9-26-18-37-22l-21-6v105l-18 53c-10 28-21 52-24 52-4 0-27-31-51-70-24-38-47-70-50-70s-24 28-46 62-44 61-50 61l-10-2-13-48-13-48 11-49c6-27 8-51 5-54-2-3-21 8-41 23l-37 28-16-11c-34-24-67-40-100-47l-35-7 37 43 37 42 29 76c16 42 34 100 41 129l12 53-18 21c-11 11-41 33-68 48l-49 29 36 6 37 7 41-21c23-12 43-21 44-19 2 2 18 54 35 116l31 113-12 15-11 14h-57l-56 1 28 15c16 9 57 22 90 29l62 14 40-6c21-3 46-10 55-16zm494 5 86 3-6-15c-4-8-13-42-20-75l-14-60v-195h8c10 0 133 93 155 118l18 20 2 63c1 35-1 80-6 99l-7 36 40-4 40-4 40 16c22 9 47 16 55 16h15l-21-39-20-39-2-58c-1-33 1-75 6-95l7-36-45-24c-25-13-45-28-45-34 0-5 22-24 48-41l48-32 1-93 1-94 15-41 15-42-34-33c-19-18-36-41-40-51-6-21-24-24-24-4v14l-44 39-44 39 9 44c4 25 8 75 9 111v67l-34 26c-19 14-37 26-41 26-3 0-31-16-62-36l-56-36 7-86c3-47 9-103 13-124l6-39-29 12-29 11-50-7c-27-3-65-8-84-12l-33-6 30 42 30 41 12 51 12 51-6 50c-4 27-14 68-23 89l-15 40 16 43 16 43 7 68 6 67-36 32-37 31-6 32-6 33 30-11 31-11 85 4zm-1267-86-47-20 2-240 3-241 56-22 56-22 49 18 49 19 8 88c4 49 6 156 5 238l-3 150-33 19c-18 11-47 22-65 26l-32 7-48-20zm730-81c-3-11-20-66-37-123l-31-102 32-40c18-22 37-40 43-40s23 18 39 39l27 39-1 24c0 12-15 68-33 123l-32 100-7-20z"/></g><g fill="#4a4a4a" transform="matrix(.1 0 0 -.1 0 300)"><path d="M0 1500V0h3000v3000H0V1500zm1210 375c52-14 112-30 132-36l37-10-10-27-10-27-1-63v-63l22-68 22-69-15-28c-8-16-20-53-27-82l-12-53 6-42c4-24 15-57 26-75s20-34 20-36-25-6-57-10c-31-4-89-17-128-31l-73-24-133 35c-74 19-134 36-136 37-1 1 4 21 10 44l11 43-11 91-12 91-15 23-15 23 21 44 21 43 5 71 4 71-20 45-20 45 82 18c44 9 95 23 111 30 43 19 59 18 165-10zm1500-40-23-47 5-89 5-89-41-23c-22-12-40-27-40-32 1-6 22-23 47-40l46-30 1-95 1-95 14-40 14-40-29-30c-16-16-35-43-44-59l-14-28-16 30c-8 16-30 42-49 58l-34 29 7 105 6 105-32 34-33 35-58-36-58-37v-48c0-26 4-83 8-125l8-76-36 11-35 10-51-11c-28-7-65-12-82-12h-31l26 28c14 15 34 43 43 62l18 35-1 72-1 72-20 46-20 45 19 43 20 42v143l-35 35-35 35v52l28-7c15-5 66-8 115-8h87s-7-21-15-47l-14-48-7-126-7-126 24 12c13 7 55 37 92 67l68 55-3 86c-2 48-7 95-12 104l-8 18 43-6 44-5 55 20c30 11 57 18 59 16s-7-25-19-50zm-1964 15c-3-16-11-67-18-115l-12-86-16 3-15 3-21 42c-12 23-24 51-27 63l-5 21-79-3-78-3-6-60c-4-33-7-146-8-252l-1-192 33-5c17-3 52-7 77-10l45-5 27 57c16 31 44 75 63 97l35 40v-61c0-34 3-89 6-123l7-61h-49l-49-31-49-31-76 17c-41 9-117 19-168 22l-93 6 7 16c4 9 13 33 21 54l14 39v79l1 79-12 35-12 36 17 42 17 42 6 92 5 92-32 27c-17 14-35 34-40 43l-9 16 250 2 250 1-6-28zm1069 15 35-14 48 14c26 8 48 15 50 15s0-10-3-21c-20-63-1-205 39-293 13-28 29-78 35-111l11-60 40-80 40-80 50-53c27-28 46-52 41-52-11 0-89 33-148 62l-41 21-28-22c-14-11-33-21-40-21h-14l-1 58-1 57-17 49-17 49-28-39c-15-21-36-54-47-71-10-18-23-33-28-33s-28 30-52 67l-43 66-14-34-14-34 5-60c2-33 8-68 12-79l8-18-24 12c-13 7-34 22-47 33l-23 21-17-12c-30-22-97-52-116-52h-20l26 28c36 38 71 112 103 216l27 88-32 33c-17 18-50 41-71 51l-40 17 13 9c7 4 27 8 45 8h32l36-17c19-9 37-14 39-12 3 3 17 46 31 96l26 92-3 28-3 28-62-1-63-1v7c0 7 95 45 135 53 11 3 37 5 58 6l38 1 34-15zm-762-95-43-19v-467l45-22c54-26 76-27 131-6l42 16 7 213c4 118 5 225 1 238l-6 25-45 21c-54 25-77 25-132 1zm717-141c-12-41-28-93-35-117l-14-42 32-38c17-20 33-39 35-42 6-8 71 74 72 90 0 16-57 211-64 218-3 2-14-29-26-69z"/></g><g fill="#030303" transform="matrix(.1 0 0 -.1 0 300)"><path d="M0 1500V0h3000v3000H0V1500zm1225 374c55-15 113-29 128-32l29-5-7-21c-4-11-9-51-12-87l-5-67 17-58c9-33 22-65 27-71l10-13-9-12c-6-7-18-37-28-66l-17-54 4-67 3-66 22-30 21-30-95-19c-53-10-112-25-131-33l-36-15-70 17c-39 9-102 26-139 36l-68 20 8 32c4 18 7 61 6 97l-2 65-16 55c-21 70-21 74 4 144l21 59v42c0 48-16 102-37 127l-15 16 59 12c32 6 90 22 128 34 39 13 77 21 85 20 8-2 60-15 115-30zm-475-4c0-25-31-224-36-229-14-15-74 72-74 107v20l-16 6c-9 3-44 6-79 6h-63l-7-17c-3-10-9-119-11-243l-5-225 8-12 8-11 70-7 70-7 23 50c23 51 95 141 105 132 3-3 7-57 8-119l1-114-37-13c-20-7-53-23-72-37l-34-25-37 10c-20 5-80 16-132 24l-95 15-42-4c-24-3-43-3-43 0 0 2 10 23 22 46l22 42 1 111v111l-13 15-12 15 19 47 20 46 7 87 6 88-41 40c-23 21-41 43-41 47v8l213 3c116 1 229 3 250 5l37 2v-20zm1980 10c0-6-8-25-17-43l-17-32-1-100v-99l-38-22c-21-12-38-25-36-30 1-5 22-23 48-40l45-31-2-79-3-79 16-58 15-58-34-34c-19-19-37-43-41-55-9-28-20-25-35 9l-12 30-38 26-38 26 9 37c5 20 9 72 9 114v77l-32 24-31 25-59-36-58-37v-20c0-21 15-135 25-193l6-34-32 7-32 7-84-7-84-7 17-19c9-11 15-21 13-24-3-2-48 15-102 39l-96 44-33-24c-17-13-37-24-42-24h-11v63l-1 62-12 43c-7 23-16 42-20 42s-27-31-51-70c-24-38-47-70-50-70s-26 32-51 71l-45 71-12-38c-15-50-16-89-2-137 6-22 8-42 5-45-4-3-26 8-49 25l-43 30-22-18c-24-19-120-54-128-46-3 3 7 18 22 33 36 39 90 153 113 242l19 72-42 36-41 35-27 6c-36 7-35 18 3 33l31 13 49-21 49-20 4 7c9 14 56 191 56 210v20l-21 6-20 7-50-7-49-7v7c0 3 26 18 58 33l57 27 80-2c44-1 98-3 120-4 22-2 52 1 67 5l27 8-6-69-5-68 11-60 11-60 29-60 29-60 5-48 5-47 40-83c22-45 53-98 70-117l29-35 18 15c9 7 28 36 42 63l25 50-4 76-4 76-18 38-18 37 21 49 21 50v136l-30 17-29 17-9 33-9 33 7 8 7 8 49-11 49-12 66 7 67 6-18-53-17-53-6-117-6-118h6c15 0 101 62 136 98l39 39-4 79c-2 44-8 87-13 98l-8 19 44-6 44-6 45 19c52 22 70 24 70 10zm-1670-108c-19-9-38-21-42-27l-8-10v-445l24-15c13-9 39-20 57-26l34-10 53 18 52 17v475l-55 20c-66 25-69 25-115 3zm713-147c-12-38-27-89-34-112l-12-42 33-40 32-41 34 42c19 24 34 48 33 53 0 6-15 55-33 110l-32 100-21-70z"/></g></g></svg>